<svg width="189" height="60" viewBox="0 0 189 60" fill="none" xmlns="http://www.w3.org/2000/svg">
    <g clip-path="url(#clip0_8219_10796)">
    <path fill-rule="evenodd" clip-rule="evenodd" d="M30.5338 0C13.6494 0 0 13.75 0 30.7606C0 44.3581 8.74562 55.8681 20.8781 59.9419C22.395 60.2481 22.9506 59.28 22.9506 58.4656C22.9506 57.7525 22.9006 55.3081 22.9006 52.7612C14.4069 54.595 12.6381 49.0944 12.6381 49.0944C11.2731 45.5294 9.25062 44.6131 9.25062 44.6131C6.47062 42.7287 9.45312 42.7287 9.45312 42.7287C12.5369 42.9325 14.155 45.8862 14.155 45.8862C16.8844 50.5713 21.2825 49.2475 23.0519 48.4325C23.3044 46.4462 24.1138 45.0712 24.9731 44.3075C18.1988 43.5944 11.0713 40.9463 11.0713 29.1306C11.0713 25.7694 12.2838 23.0194 14.205 20.8806C13.9019 20.1169 12.84 16.9587 14.5088 12.7319C14.5088 12.7319 17.0869 11.9169 22.9 15.8894C25.3888 15.216 27.9555 14.8735 30.5338 14.8706C33.1119 14.8706 35.74 15.2275 38.1669 15.8894C43.9806 11.9169 46.5588 12.7319 46.5588 12.7319C48.2275 16.9587 47.165 20.1169 46.8619 20.8806C48.8337 23.0194 49.9963 25.7694 49.9963 29.1306C49.9963 40.9463 42.8687 43.5431 36.0437 44.3075C37.1562 45.275 38.1162 47.1081 38.1162 50.0112C38.1162 54.1362 38.0662 57.4469 38.0662 58.465C38.0662 59.28 38.6225 60.2481 40.1387 59.9425C52.2713 55.8675 61.0169 44.3581 61.0169 30.7606C61.0669 13.75 47.3675 0 30.5338 0Z" fill="#C5DFEA"/>
    </g>
    <path d="M98.6161 27.8401H89.2942C89.0537 27.8401 88.8587 28.0353 88.8587 28.2759V32.8335C88.8587 33.074 89.0537 33.2699 89.2942 33.2699H92.9306V38.9323C92.9306 38.9323 92.1142 39.2107 89.8566 39.2107C87.1934 39.2107 83.4729 38.2375 83.4729 30.0563C83.4729 21.8731 87.3471 20.7967 90.9842 20.7967C94.1327 20.7967 95.4888 21.3507 96.3521 21.6181C96.6234 21.7012 96.8741 21.4311 96.8741 21.1903L97.9139 16.787C97.9139 16.6739 97.8757 16.5387 97.7476 16.4466C97.3971 16.1965 95.2587 15 89.8566 15C83.6337 15 77.25 17.6475 77.25 30.3754C77.25 43.1034 84.5586 45 90.7174 45C95.8168 45 98.9102 42.8209 98.9102 42.8209C99.0378 42.7504 99.0516 42.5721 99.0516 42.4908V28.2759C99.0516 28.0353 98.8567 27.8401 98.6161 27.8401Z" fill="#C5DFEA"/>
    <path d="M146.658 16.525C146.658 16.2823 146.466 16.0867 146.225 16.0867H140.976C140.736 16.0867 140.541 16.2823 140.541 16.525C140.541 16.5259 140.543 26.6683 140.543 26.6683H132.361V16.525C132.361 16.2823 132.168 16.0867 131.928 16.0867H126.68C126.441 16.0867 126.246 16.2823 126.246 16.525V43.9904C126.246 44.2329 126.441 44.4297 126.68 44.4297H131.928C132.168 44.4297 132.361 44.2329 132.361 43.9904V32.2423H140.543C140.543 32.2423 140.528 43.9896 140.528 43.9904C140.528 44.2329 140.723 44.4297 140.963 44.4297H146.224C146.465 44.4297 146.657 44.2329 146.658 43.9904V16.525Z" fill="#C5DFEA"/>
    <path d="M108.521 20.1289C108.521 18.2391 107.006 16.7118 105.136 16.7118C103.268 16.7118 101.752 18.2391 101.752 20.1289C101.752 22.0172 103.268 23.5488 105.136 23.5488C107.006 23.5488 108.521 22.0172 108.521 20.1289Z" fill="#C5DFEA"/>
    <path d="M108.145 38.1965C108.145 37.4927 108.145 25.5184 108.145 25.5184C108.145 25.2776 107.95 25.0808 107.71 25.0808H102.478C102.238 25.0808 102.023 25.3284 102.023 25.5689C102.023 25.5689 102.023 40.8248 102.023 43.7332C102.023 44.2669 102.356 44.4258 102.786 44.4258C102.786 44.4258 105.02 44.4258 107.5 44.4258C108.018 44.4258 108.145 44.1717 108.145 43.7245C108.145 42.751 108.145 38.9369 108.145 38.1965Z" fill="#C5DFEA"/>
    <path d="M166.605 25.1228H161.397C161.158 25.1228 160.964 25.3199 160.964 25.5623V39.0291C160.964 39.0291 159.64 39.9974 157.762 39.9974C155.884 39.9974 155.386 39.1452 155.386 37.3065C155.386 35.465 155.386 25.5623 155.386 25.5623C155.386 25.3199 155.192 25.1228 154.953 25.1228H149.666C149.428 25.1228 149.232 25.3199 149.232 25.5623C149.232 25.5623 149.232 32.7338 149.232 38.1953C149.232 43.6579 152.277 44.9941 156.464 44.9941C159.9 44.9941 162.67 43.0958 162.67 43.0958C162.67 43.0958 162.802 44.0964 162.862 44.2147C162.921 44.3329 163.077 44.4528 163.245 44.4528L166.608 44.4376C166.846 44.4376 167.042 44.2405 167.042 43.9991L167.04 25.5623C167.04 25.3199 166.846 25.1228 166.605 25.1228Z" fill="#C5DFEA"/>
    <path d="M178.787 39.98C176.98 39.9252 175.755 39.105 175.755 39.105V30.4074C175.755 30.4074 176.963 29.6664 178.447 29.534C180.322 29.3658 182.13 29.9325 182.13 34.407C182.13 39.1251 181.314 40.0561 178.787 39.98ZM180.841 24.5051C177.883 24.5051 175.871 25.8249 175.871 25.8249V16.5248C175.871 16.2821 175.677 16.0866 175.438 16.0866H170.174C169.935 16.0866 169.74 16.2821 169.74 16.5248V43.9903C169.74 44.2327 169.935 44.4295 170.174 44.4295C170.175 44.4295 173.825 44.4295 173.827 44.4295C173.991 44.4295 174.116 44.3448 174.208 44.1967C174.298 44.0489 174.429 42.9299 174.429 42.9299C174.429 42.9299 176.582 44.9697 180.656 44.9697C185.44 44.9697 188.183 42.5434 188.183 34.0774C188.183 25.6114 183.801 24.5051 180.841 24.5051Z" fill="#C5DFEA"/>
    <path d="M123.231 25.0786H119.294C119.294 25.0786 119.288 19.8785 119.288 19.8773C119.288 19.6802 119.186 19.5819 118.959 19.5819H113.593C113.385 19.5819 113.273 19.6737 113.273 19.8742V25.2492C113.273 25.2492 110.584 25.8985 110.402 25.9505C110.221 26.0032 110.088 26.1701 110.088 26.3694V29.7471C110.088 29.9901 110.282 30.186 110.522 30.186H113.273C113.273 30.186 113.273 33.7186 113.273 38.312C113.273 44.3476 117.506 44.9406 120.363 44.9406C121.669 44.9406 123.23 44.521 123.488 44.4261C123.644 44.3686 123.734 44.2071 123.734 44.0319L123.739 40.3163C123.739 40.0743 123.534 39.8778 123.304 39.8778C123.074 39.8778 122.487 39.9714 121.883 39.9714C119.949 39.9714 119.294 39.0721 119.294 37.9082C119.294 36.7449 119.293 30.186 119.293 30.186H123.231C123.471 30.186 123.665 29.9901 123.665 29.7471V25.5162C123.665 25.2739 123.471 25.0786 123.231 25.0786Z" fill="#C5DFEA"/>
    <defs>
    <clipPath id="clip0_8219_10796">
    <rect width="61.25" height="60" fill="white"/>
    </clipPath>
    </defs>
    </svg>
    