<svg width="60" height="60" viewBox="0 0 60 60" fill="none" xmlns="http://www.w3.org/2000/svg">
    <path fill-rule="evenodd" clip-rule="evenodd" d="M16 38.276C16 34.799 18.676 32 22 32C25.324 32 28 34.799 28 38.276V53.724C28 57.2008 25.324 60 22 60C18.676 60 16 57.2008 16 53.724V38.276Z" fill="#E01E5A"/>
    <path fill-rule="evenodd" clip-rule="evenodd" d="M38.276 44C34.7992 44 32 41.324 32 38C32 34.676 34.799 32 38.276 32H53.7244C57.2012 32 60.0004 34.676 60.0004 38C60.0004 41.324 57.2014 44 53.7244 44H38.276Z" fill="#ECB22D"/>
    <path fill-rule="evenodd" clip-rule="evenodd" d="M32 6.276C32 2.799 34.676 0 38 0C41.324 0 44 2.799 44 6.276V21.724C44 25.201 41.324 28 38 28C34.676 28 32 25.201 32 21.724V6.276Z" fill="#2FB67C"/>
    <path fill-rule="evenodd" clip-rule="evenodd" d="M6.276 28C2.799 28 0 25.324 0 22C0 18.676 2.799 16 6.276 16H21.724C25.201 16 28 18.676 28 22C28 25.324 25.201 28 21.724 28H6.276Z" fill="#36C5F1"/>
    <path fill-rule="evenodd" clip-rule="evenodd" d="M32 54C32 57.324 34.676 60 38 60C41.324 60 44 57.324 44 54C44 50.676 41.324 48 38 48H32V54Z" fill="#ECB22D"/>
    <path fill-rule="evenodd" clip-rule="evenodd" d="M54 28H48V22C48 18.676 50.676 16 54 16C57.324 16 60 18.676 60 22C60 25.324 57.324 28 54 28Z" fill="#2FB67C"/>
    <path fill-rule="evenodd" clip-rule="evenodd" d="M6 32H12V38C12 41.324 9.324 44 6 44C2.676 44 0 41.324 0 38C0 34.676 2.676 32 6 32Z" fill="#E01E5A"/>
    <path fill-rule="evenodd" clip-rule="evenodd" d="M28 6V12H22C18.676 12 16 9.324 16 6C16 2.676 18.676 0 22 0C25.324 0 28 2.676 28 6Z" fill="#36C5F1"/>
    </svg>
    