<svg width="25" height="24" viewBox="0 0 25 24" fill="none" xmlns="http://www.w3.org/2000/svg">
    <path fill-rule="evenodd" clip-rule="evenodd" d="M6.5 15.3104C6.5 13.9196 7.5704 12.8 8.9 12.8C10.2296 12.8 11.3 13.9196 11.3 15.3104V21.4896C11.3 22.8804 10.2296 24 8.9 24C7.5704 24 6.5 22.8804 6.5 21.4896V15.3104Z" fill="#E01E5A"/>
    <path fill-rule="evenodd" clip-rule="evenodd" d="M15.4108 17.6C14.0201 17.6 12.9004 16.5296 12.9004 15.2C12.9004 13.8704 14.02 12.8 15.4108 12.8H21.5901C22.9809 12.8 24.1005 13.8704 24.1005 15.2C24.1005 16.5296 22.9809 17.6 21.5901 17.6H15.4108Z" fill="#ECB22D"/>
    <path fill-rule="evenodd" clip-rule="evenodd" d="M12.9004 2.5104C12.9004 1.1196 13.9708 0 15.3004 0C16.63 0 17.7004 1.1196 17.7004 2.5104V8.6896C17.7004 10.0804 16.63 11.2 15.3004 11.2C13.9708 11.2 12.9004 10.0804 12.9004 8.6896V2.5104Z" fill="#2FB67C"/>
    <path fill-rule="evenodd" clip-rule="evenodd" d="M2.61001 11.1999C1.21921 11.1999 0.0996094 10.1295 0.0996094 8.7999C0.0996094 7.4703 1.21921 6.3999 2.61001 6.3999H8.78921C10.18 6.3999 11.2996 7.4703 11.2996 8.7999C11.2996 10.1295 10.18 11.1999 8.78921 11.1999H2.61001Z" fill="#36C5F1"/>
    <path fill-rule="evenodd" clip-rule="evenodd" d="M12.9004 21.6C12.9004 22.9295 13.9708 23.9999 15.3004 23.9999C16.63 23.9999 17.7004 22.9295 17.7004 21.6C17.7004 20.2704 16.63 19.2 15.3004 19.2H12.9004V21.6Z" fill="#ECB22D"/>
    <path fill-rule="evenodd" clip-rule="evenodd" d="M21.7008 11.1999H19.3008V8.7999C19.3008 7.4703 20.3712 6.3999 21.7008 6.3999C23.0304 6.3999 24.1008 7.4703 24.1008 8.7999C24.1008 10.1295 23.0304 11.1999 21.7008 11.1999Z" fill="#2FB67C"/>
    <path fill-rule="evenodd" clip-rule="evenodd" d="M2.49961 12.8H4.89961V15.2C4.89961 16.5296 3.82921 17.6 2.49961 17.6C1.17001 17.6 0.0996094 16.5296 0.0996094 15.2C0.0996094 13.8704 1.17001 12.8 2.49961 12.8Z" fill="#E01E5A"/>
    <path fill-rule="evenodd" clip-rule="evenodd" d="M11.3 2.4V4.8H8.9C7.5704 4.8 6.5 3.7296 6.5 2.4C6.5 1.0704 7.5704 0 8.9 0C10.2296 0 11.3 1.0704 11.3 2.4Z" fill="#36C5F1"/>
    </svg>
    